<?xml version="1.0" encoding="UTF-8"?>
<svg version="1.1" xmlns="http://www.w3.org/2000/svg" width="2134" height="2134">
<path d="M0 0 C1.13949488 -0.00152655 2.27898976 -0.0030531 3.45301479 -0.0046259 C7.28283499 -0.00853203 11.11261588 -0.00530728 14.94243628 -0.00213462 C17.72320057 -0.00292576 20.50396318 -0.00522349 23.28472665 -0.00744686 C29.35570212 -0.01149785 35.42666903 -0.01182772 41.49764537 -0.00974091 C50.58638649 -0.00663394 59.67511974 -0.00927866 68.76386029 -0.01303962 C84.25404612 -0.01927759 99.74422916 -0.0207451 115.23441607 -0.01962215 C130.93535425 -0.01849824 146.63629006 -0.01952987 162.33722788 -0.02319461 C163.32846725 -0.02342426 164.31970661 -0.02365392 165.34098354 -0.02389053 C169.37810028 -0.02483216 173.41521702 -0.02578784 177.45233375 -0.02676172 C219.58667298 -0.03691091 261.72101089 -0.0399679 303.8553512 -0.04055383 C308.39215129 -0.04061858 312.92895138 -0.04068652 317.46575147 -0.04075724 C318.59156401 -0.04077424 319.71737656 -0.04079125 320.87730464 -0.04080877 C345.81955502 -0.04121713 370.76180515 -0.04340679 395.7040554 -0.04591308 C405.97303257 -0.04694145 416.24200975 -0.04793147 426.51098692 -0.04892933 C428.2129351 -0.04909522 428.2129351 -0.04909522 429.94926606 -0.04926445 C494.98106992 -0.05558968 560.01287361 -0.05971346 625.04467779 -0.0592559 C627.47895005 -0.05924012 629.91322232 -0.05922438 632.34749458 -0.05920869 C643.33811249 -0.05913531 654.32873041 -0.05904714 665.31934833 -0.05895481 C670.22036744 -0.05891368 675.12138655 -0.05887353 680.02240566 -0.05883349 C682.47545682 -0.0588131 684.92850798 -0.05879208 687.38155914 -0.05877043 C764.92637721 -0.05809039 842.4711907 -0.06540347 920.01600748 -0.07931072 C939.54805569 -0.08281177 959.08010391 -0.08628125 978.61215216 -0.08957511 C980.41618135 -0.08987942 980.41618135 -0.08987942 982.25665557 -0.09018988 C1019.33209727 -0.09640611 1056.40753859 -0.1001707 1093.48298079 -0.1014331 C1095.22937069 -0.10149302 1095.22937069 -0.10149302 1097.01104119 -0.10155416 C1122.57122733 -0.1024075 1148.13141345 -0.10266861 1173.6915996 -0.10238378 C1182.83801069 -0.1022873 1191.98442178 -0.10223526 1201.13083288 -0.10220506 C1203.40621781 -0.10219714 1205.68160275 -0.10218694 1207.95698769 -0.10217443 C1244.19722191 -0.10199819 1280.43745222 -0.10769308 1316.67768532 -0.11632825 C1353.18946169 -0.12498387 1389.70123264 -0.12716464 1426.2130096 -0.12056693 C1431.26294789 -0.11965468 1436.31288619 -0.11881139 1441.3628245 -0.11800891 C1442.35271543 -0.11784882 1443.34260637 -0.11768874 1444.36249399 -0.1175238 C1460.01126684 -0.11517445 1475.66003029 -0.11951991 1491.30880137 -0.1266801 C1506.71163001 -0.13358674 1522.11444484 -0.13330854 1537.51727318 -0.12548796 C1546.53700083 -0.12112035 1555.5566877 -0.12214508 1564.57641193 -0.13135475 C1570.58232736 -0.13693362 1576.58821264 -0.13513246 1582.59412579 -0.12757196 C1585.98871898 -0.12349812 1589.38316832 -0.12346233 1592.77776621 -0.13032265 C1614.40584721 -0.17107859 1635.98558848 0.68044487 1657.40443522 3.87649983 C1658.5551652 4.04641438 1659.70589518 4.21632893 1660.89149576 4.39139241 C1746.70618851 17.59949971 1823.81231195 58.78065884 1885.18962198 119.67395467 C1886.61134052 121.08376606 1888.0370031 122.48959662 1889.46278483 123.89529866 C1895.57069331 129.99557294 1901.0784579 136.38938521 1906.46693522 143.12649983 C1907.40195279 144.22812599 1908.34328655 145.32447397 1909.29506022 146.41165608 C1964.84998312 210.12060799 1999.31548385 300.68818883 1999.67006022 385.31009358 C1999.68058169 386.99862698 1999.68058169 386.99862698 1999.69131571 388.72127217 C1999.70872701 392.33555588 1999.71516839 395.94967572 1999.71693522 399.56399983 C1999.71794733 401.41671498 1999.71794733 401.41671498 1999.7189799 403.30685872 C1999.70320761 421.46149071 1999.2545268 439.16080132 1996.46693522 457.12649983 C1996.30064615 458.27440999 1996.13435709 459.42232014 1995.96302897 460.60501546 C1990.58101726 497.34222868 1980.08716622 532.87319418 1964.60902506 566.63235921 C1963.56144719 568.92010087 1962.53673304 571.21656181 1961.51771647 573.51712483 C1949.14290772 601.07329963 1932.26483782 626.5617279 1913.46693522 650.12649983 C1912.66900553 651.13712483 1911.87107584 652.14774983 1911.04896647 653.18899983 C1906.31614933 659.08617376 1901.30140947 664.67938437 1896.15834147 670.21634358 C1893.70689755 672.86703403 1891.30065944 675.55099316 1888.90443522 678.25149983 C1882.49964636 685.37682743 1875.78381881 692.15122393 1868.49427897 698.37259358 C1867.08851945 699.58875162 1865.70698789 700.83326485 1864.34584147 702.09915608 C1856.51117238 709.37892449 1848.03291463 715.74443937 1839.46693522 722.12649983 C1838.74441569 722.66855061 1838.02189615 723.21060139 1837.27748209 723.76907796 C1771.8885344 772.67836286 1690.02042208 801.23489618 1608.1964274 801.28763264 C1606.49797562 801.29227281 1604.79952484 801.29729903 1603.10107523 801.30267781 C1598.52440364 801.31568487 1593.94774663 801.32222316 1589.37105948 801.32668847 C1586.50191597 801.32963706 1583.63277629 801.33374496 1580.76363474 801.33819264 C1571.75774626 801.35183415 1562.75186673 801.36151821 1553.74596864 801.36539453 C1543.40281886 801.36987306 1533.05980138 801.38742563 1522.71669179 801.41639513 C1514.683956 801.4381017 1506.6512572 801.44810351 1498.61849242 801.44943565 C1493.83770432 801.45047688 1489.05704112 801.45623821 1484.27628428 801.47425526 C1479.77485876 801.49089325 1475.27365002 801.49281634 1470.77220446 801.48411626 C1469.13451971 801.48335433 1467.49682251 801.4875748 1465.85916811 801.49757451 C1451.19399489 801.58176333 1437.03446545 799.86367615 1423.09193522 795.06399983 C1422.22254313 794.76799886 1421.35315104 794.47199788 1420.45741373 794.16702718 C1401.5512061 787.44915486 1386.00974847 776.82696956 1371.46693522 763.12649983 C1370.80306803 762.52708577 1370.13920084 761.92767171 1369.45521647 761.31009358 C1353.58844948 746.40884994 1341.92861993 725.04862278 1336.46693522 704.12649983 C1336.27518717 703.45022542 1336.08343912 702.773951 1335.88588053 702.07718343 C1329.72818223 679.88234755 1329.97797398 653.201986 1336.46693522 631.12649983 C1336.67060709 630.41219807 1336.87427897 629.69789632 1337.08412272 628.96194905 C1346.6518871 596.42712063 1369.23035634 567.15971045 1399.00941569 550.72317952 C1419.98582388 539.71725486 1441.35440059 533.64102807 1465.11854655 533.72586507 C1466.60730635 533.7201015 1468.0960615 533.71301026 1469.58480936 533.70471638 C1472.75593303 533.68976317 1475.92689011 533.68381505 1479.09804827 533.68524426 C1484.13277984 533.6873047 1489.16729293 533.66753302 1494.20196635 533.64506978 C1503.9888387 533.60433371 1513.77569289 533.58555811 1523.56263071 533.5688979 C1536.00810036 533.54646022 1548.4535178 533.51255801 1560.89890409 533.46169877 C1565.07493105 533.44520964 1569.25087501 533.43309541 1573.42693621 533.43146008 C1603.11015698 533.88797676 1603.11015698 533.88797676 1632.21693522 528.87649983 C1633.38313395 528.55334798 1633.38313395 528.55334798 1634.57289225 528.2236678 C1668.29072176 518.57127503 1695.78141223 497.57408462 1713.62709147 467.46634358 C1731.54380811 434.9423675 1736.22825536 398.62993846 1725.93959147 362.82962483 C1715.56332609 328.73317471 1692.5098078 300.6939871 1661.15443522 283.81399983 C1642.1398377 273.94277155 1621.4893897 268.95431588 1600.0896371 268.99934131 C1598.95484148 268.99774149 1597.82004587 268.99614167 1596.6508625 268.99449337 C1592.83103777 268.99033193 1589.01125176 268.99330528 1585.19142634 268.99621457 C1582.4202443 268.99523332 1579.64906407 268.99274361 1576.87788296 268.99032539 C1570.82484116 268.98584326 1564.77180762 268.98507233 1558.71876451 268.98669817 C1549.65694349 268.98910807 1540.59513094 268.98572293 1531.53331106 268.98118124 C1516.08959478 268.97360145 1500.64588079 268.97069515 1485.2021628 268.9702937 C1469.54757357 268.96986001 1453.89298697 268.96722333 1438.23839861 268.96187085 C1437.2502447 268.96153366 1436.26209079 268.96119647 1435.24399282 268.96084906 C1430.20547607 268.95911645 1425.16695934 268.95734166 1420.12844261 268.9555469 C1409.79747247 268.9518792 1399.46650223 268.94850423 1389.13553196 268.94522709 C1387.57471855 268.94473144 1387.57471855 268.94473144 1385.98237356 268.94422579 C1363.11467336 268.93703613 1340.24697278 268.93270778 1317.37927187 268.92850876 C1264.15909679 268.91871782 1210.93892775 268.90018109 1157.71875635 268.87837679 C1136.83388924 268.86982572 1115.94902202 268.86155488 1095.0641548 268.8532597 C1091.54568398 268.85186152 1088.02721317 268.8504607 1084.50874235 268.84905955 C1030.40877241 268.8275324 976.30880179 268.8080937 922.20883064 268.7898467 C918.54072601 268.7886089 914.87262137 268.78736733 911.20451673 268.78612533 C854.71469934 268.76702306 798.22488197 268.75006549 741.73506266 268.73776692 C740.52024069 268.73750193 739.30541872 268.73723694 738.05378397 268.73696391 C724.57733487 268.73402707 711.10088576 268.7311343 697.62443665 268.72825931 C696.41377684 268.72800102 695.20311703 268.72774274 693.95577055 268.72747662 C687.84684256 268.72617391 681.73791456 268.7248739 675.62898656 268.72357707 C620.42830888 268.71183547 565.22763364 268.69799477 510.02695948 268.67472333 C508.86660682 268.67423512 507.70625416 268.67374691 506.5107393 268.67324391 C482.18176188 268.66298527 457.85278479 268.65210696 433.52380801 268.64041669 C422.13066173 268.63494486 410.73751538 268.62961768 399.34436899 268.62437505 C398.2226488 268.62385645 397.1009286 268.62333786 395.94521689 268.62280356 C359.81349394 268.60617301 323.68177748 268.59949543 287.55005097 268.59820022 C251.15493503 268.59686728 214.75983444 268.58645117 178.36472549 268.56325471 C173.3339119 268.56005192 168.30309826 268.55695814 163.27228457 268.55393094 C161.79303631 268.55303535 161.79303631 268.55303535 160.28390425 268.55212166 C144.67744929 268.54295226 129.07101179 268.54385045 113.46455566 268.54897162 C98.11330534 268.55380415 82.7620897 268.54797124 67.41084784 268.53085156 C58.41476072 268.52114124 49.4187625 268.51958109 40.4226759 268.53021379 C34.44003847 268.53646399 28.45747272 268.53176785 22.47484724 268.51836017 C19.0885346 268.51107298 15.70254471 268.50993788 12.31621521 268.51899183 C-22.3002693 268.60454653 -54.57087489 263.07058061 -82.53306478 241.12649983 C-83.06834799 240.70787678 -83.60363119 240.28925374 -84.1551351 239.85794514 C-97.41149399 229.38177165 -107.76493435 217.56047726 -116.53306478 203.12649983 C-116.89529135 202.53530354 -117.25751791 201.94410725 -117.63072103 201.33499593 C-124.08700682 190.6052922 -128.14443987 179.14737495 -131.53306478 167.12649983 C-131.72803549 166.43959065 -131.92300619 165.75268147 -132.1238851 165.04495686 C-140.69955068 132.89850872 -133.99249593 95.16472319 -117.67759603 66.66946858 C-99.29056932 35.7985739 -70.4536648 13.26482852 -35.53306478 4.12649983 C-23.71538899 1.21561969 -12.15139684 -0.02634368 0 0 Z " fill="#FFFFFF" transform="translate(134.53306478261948,932.8735001683235)"/>
<path d="M0 0 C1.70839153 -0.00435663 3.41678111 -0.00954292 5.12516785 -0.01548767 C9.73784984 -0.02880147 14.35044948 -0.02946379 18.96314692 -0.02692437 C22.84061946 -0.02584729 26.71807584 -0.03075785 30.59554487 -0.03552979 C39.77041481 -0.04660341 48.94524381 -0.04707755 58.12011719 -0.04101562 C67.50723279 -0.03500724 76.8941973 -0.04721155 86.28128713 -0.06858569 C94.39742372 -0.08636967 102.51351301 -0.09217611 110.6296683 -0.08894795 C115.45108524 -0.08715794 120.27239499 -0.08953516 125.09379387 -0.10366249 C221.89941257 -0.36268947 317.27783648 29.32489952 390.98901367 93.77661133 C392.34474139 94.92465787 393.72568092 96.04298913 395.11694336 97.14770508 C402.26615943 102.84014374 408.76957469 108.97666167 415.2019043 115.45776367 C416.88120092 117.14779062 418.57094633 118.82683584 420.26196289 120.50512695 C426.15824265 126.39461817 431.69747551 132.37683089 436.86962891 138.92089844 C438.68943042 141.18912163 440.59342868 143.33082076 442.57055664 145.4621582 C508.96290517 219.7115894 538.5240921 326.46553776 533.24243164 424.34765625 C529.83039521 479.69728472 515.42572337 534.03767556 489.78979492 583.27612305 C488.69477462 585.39723904 487.63027532 587.53217304 486.56665039 589.66918945 C479.92605757 602.84034849 472.03856581 615.08091802 463.75805664 627.2746582 C463.28335937 627.97494141 462.80866211 628.67522461 462.31958008 629.39672852 C455.67614886 639.12263123 448.303527 648.23847549 440.75805664 657.2746582 C440.22857422 657.91000488 439.6990918 658.54535156 439.15356445 659.19995117 C433.56722102 665.87897368 427.8927523 672.31922801 421.64086914 678.3918457 C420.03249527 680.00021957 418.60372042 681.61847091 417.19555664 683.3996582 C414.60866693 686.45086145 411.82392459 688.9114568 408.78540039 691.49731445 C406.90770532 693.14346331 405.17677966 694.85200936 403.44555664 696.6496582 C399.37943491 700.77048113 394.90934895 704.3351651 390.39477539 707.94995117 C388.64656314 709.36489742 386.92022629 710.80378073 385.19555664 712.24731445 C330.14258319 758.09769817 261.08610557 787.43382825 190.32055664 797.5246582 C189.27649658 797.67580078 188.23243652 797.82694336 187.15673828 797.98266602 C183.36363959 798.48452302 179.56403117 798.88638704 175.75805664 799.2746582 C174.96594992 799.35799133 174.1738432 799.44132446 173.35773324 799.52718284 C147.98794819 802.06876679 122.48105882 801.56131864 97.01738853 801.53779467 C90.78014828 801.53302839 84.54291385 801.53976846 78.30567579 801.54514226 C65.4128191 801.5559137 52.51997708 801.5573169 39.62711716 801.55344391 C26.57875506 801.54955562 13.53040386 801.55004158 0.48204231 801.55575371 C-0.75844712 801.55629195 -0.75844712 801.55629195 -2.02399694 801.55684106 C-5.39270817 801.55831612 -8.76141939 801.55982053 -12.13013059 801.56136252 C-46.24932497 801.57696168 -80.36851184 801.57968051 -114.48770914 801.57720646 C-119.1948455 801.57686799 -123.90198186 801.5765459 -128.60911822 801.57624078 C-129.54415694 801.57617973 -130.47919566 801.57611869 -131.44256889 801.5760558 C-152.19642114 801.57478201 -172.95027236 801.57738868 -193.70412431 801.58076684 C-198.44779124 801.58153759 -203.19145817 801.58228233 -207.9351251 801.58303186 C-209.83903561 801.58333355 -211.74294611 801.58363543 -213.64685662 801.5839375 C-214.59061016 801.58408718 -215.53436371 801.58423686 -216.50671585 801.58439108 C-218.41572192 801.58469461 -220.32472799 801.58499929 -222.23373406 801.58530512 C-276.36822483 801.59397278 -330.5027147 801.59862573 -384.63720608 801.59435749 C-386.13948201 801.59424041 -386.13948201 801.59424041 -387.67210695 801.59412095 C-398.83928194 801.59324821 -410.00645692 801.59231894 -421.1736319 801.59137032 C-422.1818041 801.59128481 -423.1899763 801.5911993 -424.22869918 801.5911112 C-432.60443185 801.59040052 -432.60443185 801.59040052 -436.46002557 801.59006898 C-500.97189117 801.58453097 -565.48374246 801.59208396 -629.99560547 801.61083984 C-646.2584988 801.61556221 -662.52139214 801.62024278 -678.78428555 801.6246767 C-679.7857121 801.62495003 -680.78713866 801.62522335 -681.81891148 801.62550495 C-712.6876319 801.63387731 -743.55635112 801.63855599 -774.42507267 801.63938427 C-775.87892415 801.63942382 -775.87892415 801.63942382 -777.36214637 801.63946417 C-798.63954132 801.64000496 -819.91693618 801.63963246 -841.1943311 801.63842445 C-848.80755117 801.63799885 -856.42077124 801.63763372 -864.03399131 801.63729501 C-865.92787171 801.63720971 -867.8217521 801.63712078 -869.7156325 801.63702819 C-899.87173779 801.63558043 -930.02783334 801.6426989 -960.18393629 801.65403215 C-991.39708343 801.66568677 -1022.61021321 801.66624065 -1053.82336044 801.65418873 C-1057.17748576 801.65293694 -1060.53161111 801.65173345 -1063.88573647 801.65056801 C-1064.70887284 801.65027771 -1065.53200921 801.64998742 -1066.38008911 801.64968833 C-1079.39412053 801.64536922 -1092.40812721 801.65108277 -1105.42215474 801.6610082 C-1118.22995037 801.67056392 -1131.03770795 801.66934555 -1143.84550139 801.65680198 C-1150.69161718 801.6503867 -1157.53763841 801.64896786 -1164.38375013 801.66066531 C-1170.62004343 801.67122273 -1176.85617183 801.66780501 -1183.09245637 801.65356078 C-1185.32633938 801.65084754 -1187.56023576 801.65308018 -1189.79410613 801.66106793 C-1230.19535907 801.79559408 -1266.67548526 790.84866227 -1296.28100586 762.2668457 C-1320.23832291 738.43199417 -1334.3261962 705.47400537 -1334.57177734 671.70556641 C-1334.56797785 670.33275677 -1334.56216304 668.95995139 -1334.55444336 667.5871582 C-1334.55195587 666.87989594 -1334.54946838 666.17263367 -1334.54690552 665.44393921 C-1334.48903555 654.80142658 -1334.15737371 644.57940577 -1331.24194336 634.2746582 C-1331.01619629 633.46561035 -1330.79044922 632.6565625 -1330.55786133 631.82299805 C-1320.64046998 597.37748727 -1298.78605061 567.81116531 -1267.24194336 550.2746582 C-1266.34765625 549.77023193 -1266.34765625 549.77023193 -1265.43530273 549.25561523 C-1257.71123475 544.95076164 -1249.8833832 541.56936286 -1241.42944336 538.9621582 C-1240.69717529 538.73189941 -1239.96490723 538.50164063 -1239.21044922 538.2644043 C-1222.60279362 533.45993978 -1205.91750262 532.83855185 -1188.76154232 532.89827728 C-1186.4305773 532.89525461 -1184.09961368 532.89091669 -1181.76865324 532.88539511 C-1175.38505735 532.87404547 -1169.00159877 532.88123198 -1162.61800611 532.8915245 C-1156.38322655 532.90007978 -1150.14845709 532.89138572 -1143.91367917 532.8846401 C-1131.01605985 532.87117748 -1118.11847594 532.87174506 -1105.22085381 532.88004112 C-1092.15903499 532.88837703 -1079.0972397 532.89010163 -1066.03541946 532.88381386 C-1065.20899324 532.88341928 -1064.38256702 532.88302471 -1063.53109758 532.88261817 C-1059.3167452 532.88057266 -1055.10239289 532.878414 -1050.8880406 532.87621035 C-1021.35101806 532.8609481 -991.81400698 532.85839892 -962.27698151 532.86348514 C-931.16104427 532.86884111 -900.04512135 532.86703071 -868.92918587 532.85466003 C-867.99101013 532.85428869 -867.05283439 532.85391735 -866.08622908 532.85353476 C-855.60288711 532.84936663 -845.11954525 532.84496207 -834.63620342 532.84046072 C-815.24789466 532.83214421 -795.85958552 532.82482167 -776.47127628 532.81774139 C-775.50126536 532.81738578 -774.53125444 532.81703017 -773.53184925 532.81666378 C-727.38291262 532.79979457 -681.23397551 532.79198355 -635.08503632 532.78626819 C-632.02364402 532.78588858 -628.96225172 532.78550443 -625.90085942 532.78511926 C-594.13369406 532.78113261 -562.36652864 532.77769025 -530.59936321 532.77433266 C-499.86313106 532.77108251 -469.12689895 532.76767866 -438.39066687 532.76381188 C-435.32990295 532.76342783 -432.26913902 532.76304832 -429.20837509 532.76266929 C-383.09752076 532.75692753 -336.98666901 532.74847981 -290.8758173 532.73157501 C-289.4218927 532.73104406 -289.4218927 532.73104406 -287.93859589 532.73050237 C-268.57243549 532.72341749 -249.20627528 532.71593813 -229.84011537 532.70762232 C-219.36703868 532.70312818 -208.89396192 532.6988019 -198.42088509 532.69465637 C-197.48395005 532.69428386 -196.54701501 532.69391135 -195.58168801 532.69352755 C-164.4779691 532.68126987 -133.3742621 532.68095782 -102.27054168 532.68631335 C-72.81963065 532.69132648 -43.36873432 532.68717775 -13.91782658 532.67177552 C-9.71757316 532.66958503 -5.5173197 532.66750827 -1.31706619 532.66550255 C-0.49372427 532.66510614 0.32961766 532.66470973 1.17790933 532.66430131 C14.2037675 532.65831536 27.22960214 532.66243281 40.25545816 532.67080958 C53.07011094 532.67884968 65.88472489 532.67623131 78.69937307 532.66236159 C85.55140056 532.65524215 92.40333354 532.65318423 99.25535876 532.66422623 C105.4936171 532.67419334 111.73170968 532.67028263 117.96995704 532.65549355 C120.20793583 532.65259016 122.44592831 532.65466402 124.68389544 532.66244621 C162.84086127 532.78586649 196.80479012 522.07091866 224.75805664 495.2746582 C225.57790039 494.51797852 226.39774414 493.76129883 227.24243164 492.98168945 C250.30267902 471.03148504 263.9480934 438.19388374 264.96118164 406.50512695 C265.5600519 367.88371673 252.32843645 333.60309729 225.50805664 305.5871582 C197.72674974 278.71477031 162.3944877 268.11683261 124.50634766 268.1328125 C123.0002482 268.12977361 121.49414966 268.12625017 119.98805237 268.12228394 C116.76395634 268.11444795 113.5398711 268.1092701 110.31576729 268.10599327 C105.19720799 268.1000272 100.0787162 268.0834332 94.96018982 268.06465149 C93.19920067 268.05831535 91.43821148 268.05198971 89.67722225 268.04567432 C88.79571589 268.04250851 87.91420954 268.0393427 87.00599086 268.03608096 C75.10833524 267.99421768 63.21071269 267.96106824 51.31298828 267.94873047 C43.26243863 267.940297 35.21205861 267.91761569 27.16159385 267.8793748 C22.91666237 267.85979559 18.67198331 267.84714832 14.42700386 267.85220909 C-20.0585981 267.88551709 -20.0585981 267.88551709 -36.24194336 263.2746582 C-37.03338682 263.05095739 -37.82483028 262.82725658 -38.64025688 262.59677696 C-73.2210968 252.65099498 -101.58089094 228.94709098 -118.98266602 197.6394043 C-135.75608565 166.14127661 -139.31502462 128.29970658 -128.99194336 94.1496582 C-117.75806225 59.4251902 -94.66314246 31.09170387 -62.19116211 14.2590332 C-54.24347891 10.24537355 -46.12998778 7.08952844 -37.61694336 4.5246582 C-36.96089111 4.32582031 -36.30483887 4.12698242 -35.62890625 3.92211914 C-23.82092872 0.54136977 -12.19287828 -0.02071935 0 0 Z " fill="#FFFFFF" transform="translate(1334.241943359375,-0.274658203125)"/>
<path d="M0 0 C0.94526226 -0.00175304 1.89052451 -0.00350607 2.86443108 -0.00531223 C6.02003867 -0.00995025 9.17559973 -0.00751239 12.33120918 -0.00507832 C14.62152332 -0.00694742 16.91183715 -0.00924853 19.20215046 -0.01194364 C25.48758159 -0.01805627 31.7729994 -0.01792865 38.05843282 -0.01674926 C44.14442718 -0.01656608 50.23041656 -0.02105875 56.31640909 -0.02536215 C70.30311257 -0.03502589 84.28981238 -0.0378461 98.27651881 -0.03841921 C109.08744493 -0.03887928 119.89836962 -0.04094039 130.70929527 -0.04411983 C133.82477891 -0.04501745 136.94026255 -0.04590726 140.0557462 -0.04679471 C140.83036348 -0.04701576 141.60498075 -0.04723681 142.40307128 -0.04746456 C164.19081793 -0.05361834 185.97856409 -0.0575652 207.76631165 -0.05712128 C208.58758139 -0.0571057 209.40885114 -0.05709012 210.25500785 -0.05707407 C214.41719113 -0.05699097 218.57937442 -0.05689193 222.7415577 -0.05678936 C223.56812111 -0.05676942 224.39468452 -0.05674947 225.24629531 -0.05672892 C226.91781242 -0.05668848 228.58932953 -0.05664669 230.26084664 -0.05660353 C256.22954772 -0.05599165 282.19823572 -0.06348132 308.16693306 -0.07717609 C337.37298286 -0.09257191 366.57902406 -0.1011401 395.78507817 -0.10021287 C398.9062202 -0.10013825 402.02736223 -0.10008954 405.14850426 -0.10005856 C405.91694938 -0.1000469 406.6853945 -0.10003525 407.47712583 -0.10002324 C419.79134035 -0.09999259 432.10554342 -0.1063522 444.41975454 -0.11499082 C456.82420095 -0.12351194 469.22863082 -0.12442275 481.63307856 -0.1178815 C488.34026516 -0.11453437 495.04740576 -0.11449915 501.75459099 -0.12323475 C554.25080109 -0.18737697 554.25080109 -0.18737697 576.13324165 2.12863445 C576.89720182 2.20827549 577.66116199 2.28791652 578.44827247 2.36997092 C582.35901385 2.78696208 586.24516983 3.28671056 590.13324165 3.87863445 C591.26729439 4.04709881 592.40134712 4.21556316 593.56976509 4.3891325 C636.31729919 10.99305584 677.82673616 24.1390334 716.21185493 44.13107586 C718.20915605 45.1680482 720.21565449 46.18564758 722.2230854 47.2028532 C758.26567676 65.65572141 790.21562065 91.2616356 818.85592842 119.67608929 C820.27764696 121.08590068 821.70330954 122.49173124 823.12909126 123.89743328 C829.23699975 129.99770756 834.74476434 136.39151983 840.13324165 143.12863445 C841.06825923 144.23026061 842.00959298 145.32660859 842.96136665 146.4137907 C880.64467213 189.62803296 906.4368635 244.06257555 921.13324165 299.12863445 C921.54848091 300.68251873 921.54848091 300.68251873 921.97210884 302.26779461 C928.96469556 329.03615883 933.23121361 357.31898187 933.33636665 385.00363445 C933.34206673 386.20761883 933.3477668 387.4116032 933.3536396 388.65207195 C933.36303341 391.19340434 933.36960104 393.7347486 933.37347603 396.27609539 C933.38307556 400.06311197 933.41411012 403.84955969 933.44574165 407.63644695 C933.54000113 429.30694667 931.89116686 450.81014111 927.88324165 472.12863445 C927.67344673 473.26486248 927.46365181 474.40109051 927.24749947 475.57174969 C915.2975244 538.30911877 888.71654478 599.48590068 848.13324165 649.12863445 C847.39203072 650.05933758 846.65081978 650.9900407 845.8871479 651.94894695 C841.34945351 657.59550601 836.60303088 663.00729695 831.68792915 668.3278532 C829.7057464 670.50098017 827.77548621 672.69817371 825.8558979 674.92550945 C821.98225092 679.36545769 817.8721355 683.53729539 813.69574165 687.69113445 C812.98353462 688.40720867 812.27132759 689.12328289 811.53753853 689.86105633 C806.90029134 694.48987981 802.11115502 698.87019794 797.13324165 703.12863445 C796.11223407 704.01775731 795.09138743 704.90706504 794.07074165 705.7966032 C772.86956418 723.98112378 749.61002492 739.69427577 725.13324165 753.12863445 C724.32918892 753.57513348 723.52513618 754.0216325 722.69671822 754.4816618 C684.63893316 775.50810356 642.71592464 789.11100124 599.94574165 796.37863445 C599.21363472 796.50405621 598.48152779 796.62947796 597.72723579 796.75870037 C592.54063346 797.63699187 587.34383962 798.40730217 582.13324165 799.12863445 C581.11744781 799.27037688 581.11744781 799.27037688 580.08113289 799.4149828 C561.40000806 801.88430673 542.52175942 801.4578988 523.71922183 801.46314859 C520.82320458 801.46458429 517.92720546 801.46887995 515.03119278 801.47414303 C504.88673032 801.49255057 494.74231987 801.50082442 484.59784126 801.49923992 C475.2052096 801.49803754 465.81280732 801.51918297 456.42023367 801.55072725 C448.29641185 801.57701942 440.17266447 801.58760199 432.04880053 801.5863291 C427.22273314 801.58582373 422.39687076 801.59126956 417.57084656 801.6126852 C373.66488512 801.79399342 338.07553122 794.16285273 305.13324165 763.12863445 C304.46937447 762.52922039 303.80550728 761.92980633 303.1215229 761.3122282 C285.80697785 745.05130658 275.35365082 722.70035308 269.13324165 700.12863445 C268.84513618 699.09899578 268.84513618 699.09899578 268.5512104 698.04855633 C259.82670173 665.04860175 267.40010944 628.23237035 283.81292915 599.00363445 C289.39919311 589.45398423 296.56765982 581.1593696 304.13324165 573.12863445 C304.73265572 572.46476727 305.33206978 571.80090008 305.9496479 571.1169157 C319.60962959 556.57183801 338.04829841 546.57652089 356.75824165 540.19113445 C357.54344185 539.92075359 358.32864204 539.65037273 359.13763618 539.37179852 C372.50893021 535.0962358 386.05542911 533.67829587 400.0343647 533.74386883 C401.53810725 533.7397474 403.04184659 533.73427738 404.54557991 533.7275877 C407.7466984 533.71599442 410.94764513 533.71333053 414.14878082 533.71794415 C419.23481822 533.72485101 424.3206367 533.70872055 429.40663338 533.68954754 C440.21132456 533.65194107 451.01599511 533.63894057 461.82074165 533.62863445 C473.47573566 533.61750433 485.1306255 533.60177783 496.78554946 533.55792189 C501.00249182 533.54275032 505.21925612 533.53357531 509.43622589 533.53932476 C554.16972987 533.59681022 590.76366863 526.74627295 625.13324165 496.12863445 C625.80097603 495.53437664 626.4687104 494.94011883 627.15667915 494.3278532 C636.80402468 485.20137375 644.05969992 473.84053213 650.13324165 462.12863445 C650.59923775 461.23555584 650.59923775 461.23555584 651.0746479 460.32443523 C667.22773399 428.88843453 669.03580483 392.89290997 658.67328072 359.31296062 C655.98333208 351.14658157 652.36283603 343.59924343 648.13324165 336.12863445 C647.80565865 335.54501141 647.47807564 334.96138836 647.14056587 334.36007977 C630.15316573 304.48189217 602.17479853 283.10925785 569.22162056 273.69406414 C558.0425419 270.66732271 547.07198517 268.97326536 535.50305653 268.99834919 C534.55909396 268.99640576 533.6151314 268.99446233 532.64256391 268.99246001 C529.47942411 268.98714569 526.31632811 268.98890109 523.15318489 268.99060345 C520.86230731 268.98818472 518.57143016 268.98532224 516.28055364 268.98205411 C509.98463128 268.97430474 503.68871983 268.97268189 497.3927933 268.97200298 C491.29986791 268.97035156 485.20694919 268.96401601 479.11402718 268.95768152 C467.41171564 268.9456112 455.70940469 268.93694618 444.00708872 268.93064338 C425.4199372 268.92059936 406.83280396 268.90133954 388.24566344 268.87910099 C381.0893533 268.87057099 373.93304284 268.86230438 366.77673244 268.85399723 C365.98165208 268.85307222 365.18657171 268.85214721 364.367398 268.85119417 C345.44405152 268.82920675 326.52070301 268.80941534 307.59735298 268.79074383 C306.76947311 268.78992415 305.94159325 268.78910447 305.08862611 268.78825995 C285.78428591 268.7691859 266.47994582 268.75222235 247.17560005 268.73990154 C246.34597677 268.73937188 245.51635349 268.73884221 244.66159011 268.73829649 C237.97469783 268.734045 231.28780551 268.72986865 224.60091317 268.72571169 C196.99955412 268.70849423 169.39822006 268.68125626 141.79688248 268.64255131 C137.89451477 268.63708998 133.9921469 268.63175693 130.0897789 268.62650967 C129.32181712 268.62547529 128.55385534 268.6244409 127.762622 268.62337518 C115.42978545 268.60708499 103.0969665 268.60152356 90.76412022 268.60021201 C78.35508683 268.59870359 65.94610096 268.58649029 53.53708854 268.5634556 C46.82089332 268.55129574 40.10479552 268.54425697 33.38858414 268.55016804 C27.23024992 268.5554909 21.07209192 268.54689466 14.91378704 268.52761166 C12.69567238 268.52306361 10.47754032 268.52346849 8.25942936 268.52956004 C-8.5089948 268.57147075 -24.94298021 267.50847705 -41.05425835 262.44113445 C-41.87684135 262.18694744 -42.69942436 261.93276043 -43.54693413 261.67087078 C-51.77997494 259.0132293 -59.3742852 255.43067487 -66.86675835 251.12863445 C-67.46681694 250.7846159 -68.06687553 250.44059734 -68.68511772 250.08615398 C-88.42394038 238.54314019 -104.04263805 222.59334095 -115.86675835 203.12863445 C-116.22898491 202.53743816 -116.59121147 201.94624187 -116.9644146 201.33713055 C-123.42070038 190.60742682 -127.47813344 179.14950957 -130.86675835 167.12863445 C-131.06172905 166.44172527 -131.25669975 165.75481609 -131.45757866 165.04709148 C-136.98772579 144.31697018 -135.69701743 118.6087968 -129.86675835 98.12863445 C-129.59387993 97.12824139 -129.59387993 97.12824139 -129.31548882 96.10763836 C-119.92577391 62.43388865 -96.61359166 34.75868185 -66.86675835 17.12863445 C-46.1943097 5.72221128 -23.5921299 -0.05632069 0 0 Z " fill="#FFFFFF" transform="translate(133.86675834655762,1332.8713655471802)"/>
</svg>
